<svg width="36" height="37" viewBox="0 0 36 37" fill="none" xmlns="http://www.w3.org/2000/svg">
<g clip-path="url(#clip0_375_1141)">
<path d="M36 18.1122C36 8.10908 27.9411 0 18 0C8.05887 0 0 8.10908 0 18.1122C0 27.1523 6.5823 34.6455 15.1875 36.0043V23.3477H10.6172V18.1122H15.1875V14.1218C15.1875 9.58246 17.8748 7.07506 21.9864 7.07506C23.9551 7.07506 26.0156 7.42881 26.0156 7.42881V11.8861H23.7459C21.51 11.8861 20.8125 13.2824 20.8125 14.7161V18.1122H25.8047L25.0066 23.3477H20.8125V36.0043C29.4177 34.6455 36 27.1523 36 18.1122Z" fill="black"/>
</g>
<defs>
<clipPath id="clip0_375_1141">
<rect width="36" height="36.2243" fill="white"/>
</clipPath>
</defs>
</svg>
