<svg width="36" height="37" viewBox="0 0 36 37" fill="none" xmlns="http://www.w3.org/2000/svg">
<g clip-path="url(#clip0_375_1140)">
<path d="M18 3.2616C22.8094 3.2616 23.3789 3.28283 25.2703 3.36773C27.0281 3.44555 27.9773 3.74271 28.6102 3.99033C29.4469 4.31579 30.0516 4.71199 30.6773 5.34167C31.3102 5.97842 31.6969 6.5798 32.0203 7.42174C32.2664 8.05849 32.5617 9.0207 32.6391 10.7824C32.7234 12.6927 32.7445 13.2657 32.7445 18.098C32.7445 22.9373 32.7234 23.5104 32.6391 25.4136C32.5617 27.1824 32.2664 28.1375 32.0203 28.7743C31.6969 29.6162 31.3031 30.2247 30.6773 30.8543C30.0445 31.4911 29.4469 31.8802 28.6102 32.2057C27.9773 32.4533 27.0211 32.7504 25.2703 32.8283C23.3719 32.9132 22.8023 32.9344 18 32.9344C13.1906 32.9344 12.6211 32.9132 10.7297 32.8283C8.97188 32.7504 8.02266 32.4533 7.38984 32.2057C6.55313 31.8802 5.94844 31.484 5.32266 30.8543C4.68984 30.2176 4.30312 29.6162 3.97969 28.7743C3.73359 28.1375 3.43828 27.1753 3.36094 25.4136C3.27656 23.5033 3.25547 22.9303 3.25547 18.098C3.25547 13.2587 3.27656 12.6856 3.36094 10.7824C3.43828 9.01362 3.73359 8.05849 3.97969 7.42174C4.30312 6.5798 4.69688 5.97135 5.32266 5.34167C5.95547 4.70491 6.55313 4.31579 7.38984 3.99033C8.02266 3.74271 8.97891 3.44555 10.7297 3.36773C12.6211 3.28283 13.1906 3.2616 18 3.2616ZM18 0C13.1133 0 12.5016 0.0212252 10.582 0.106126C8.66953 0.191027 7.35469 0.502329 6.21563 0.948058C5.02734 1.41501 4.02188 2.03054 3.02344 3.04228C2.01797 4.04693 1.40625 5.05867 0.942188 6.24728C0.499219 7.40051 0.189844 8.71647 0.105469 10.6409C0.0210938 12.5795 0 13.195 0 18.1122C0 23.0293 0.0210938 23.6448 0.105469 25.5763C0.189844 27.5008 0.499219 28.8238 0.942188 29.9699C1.40625 31.1656 2.01797 32.1774 3.02344 33.182C4.02188 34.1867 5.02734 34.8093 6.20859 35.2692C7.35469 35.7149 8.6625 36.0262 10.575 36.1111C12.4945 36.196 13.1062 36.2172 17.993 36.2172C22.8797 36.2172 23.4914 36.196 25.4109 36.1111C27.3234 36.0262 28.6383 35.7149 29.7773 35.2692C30.9586 34.8093 31.9641 34.1867 32.9625 33.182C33.9609 32.1774 34.5797 31.1656 35.0367 29.977C35.4797 28.8238 35.7891 27.5078 35.8734 25.5834C35.9578 23.6519 35.9789 23.0364 35.9789 18.1192C35.9789 13.2021 35.9578 12.5865 35.8734 10.655C35.7891 8.73062 35.4797 7.40759 35.0367 6.26143C34.5938 5.05867 33.982 4.04693 32.9766 3.04228C31.9781 2.03762 30.9727 1.41501 29.7914 0.955133C28.6453 0.509404 27.3375 0.198102 25.425 0.113201C23.4984 0.0212252 22.8867 0 18 0Z" fill="black"/>
<path d="M18 8.80859C12.8953 8.80859 8.75391 12.9758 8.75391 18.1123C8.75391 23.2488 12.8953 27.416 18 27.416C23.1047 27.416 27.2461 23.2488 27.2461 18.1123C27.2461 12.9758 23.1047 8.80859 18 8.80859ZM18 24.1473C14.6883 24.1473 12.0023 21.4446 12.0023 18.1123C12.0023 14.7799 14.6883 12.0773 18 12.0773C21.3117 12.0773 23.9977 14.7799 23.9977 18.1123C23.9977 21.4446 21.3117 24.1473 18 24.1473Z" fill="black"/>
<path d="M29.7703 8.4406C29.7703 9.64336 28.8 10.6126 27.6117 10.6126C26.4164 10.6126 25.4531 9.63629 25.4531 8.4406C25.4531 7.23784 26.4234 6.26855 27.6117 6.26855C28.8 6.26855 29.7703 7.24491 29.7703 8.4406Z" fill="black"/>
</g>
<defs>
<clipPath id="clip0_375_1140">
<rect width="36" height="36.2243" fill="white"/>
</clipPath>
</defs>
</svg>
