<svg width="34" height="34" viewBox="0 0 34 34" fill="none" xmlns="http://www.w3.org/2000/svg">
<path d="M17 0C7.61016 0 0 7.61016 0 17C0 24.2051 4.48242 30.3543 10.8043 32.8312C10.6582 31.4832 10.5188 29.4246 10.8641 27.957C11.1762 26.6289 12.8563 19.5102 12.8563 19.5102C12.8563 19.5102 12.3449 18.4941 12.3449 16.9867C12.3449 14.6227 13.7129 12.8563 15.4195 12.8563C16.8672 12.8563 17.5711 13.9453 17.5711 15.2535C17.5711 16.7145 16.6414 18.8926 16.1633 20.9113C15.7648 22.6047 17.0133 23.9859 18.6801 23.9859C21.7016 23.9859 24.0258 20.7984 24.0258 16.2031C24.0258 12.1324 21.1039 9.28359 16.927 9.28359C12.0926 9.28359 9.25039 12.9094 9.25039 16.6613C9.25039 18.1223 9.81484 19.6895 10.5187 20.5395C10.6582 20.7055 10.6781 20.8582 10.6383 21.0242C10.5121 21.5621 10.2199 22.7176 10.1668 22.95C10.0938 23.2621 9.92109 23.3285 9.5957 23.1758C7.4707 22.1863 6.14258 19.0852 6.14258 16.5883C6.14258 11.2227 10.0406 6.30195 17.3719 6.30195C23.2688 6.30195 27.8508 10.5055 27.8508 16.1234C27.8508 21.9805 24.1586 26.6953 19.032 26.6953C17.3121 26.6953 15.6918 25.7988 15.134 24.743C15.134 24.743 14.284 27.9902 14.0781 28.7871C13.693 30.2613 12.657 32.1141 11.9664 33.243C13.5602 33.7344 15.2469 34 17 34C26.3898 34 34 26.3898 34 17C34 7.61016 26.3898 0 17 0Z" fill="#323232"/>
</svg>
