<svg width="34" height="34" viewBox="0 0 34 34" fill="none" xmlns="http://www.w3.org/2000/svg">
<path fill-rule="evenodd" clip-rule="evenodd" d="M23.7167 13.552C23.7167 19.1669 19.1666 23.7169 13.5517 23.7169C7.93847 23.7169 3.38844 19.1669 3.38844 13.552C3.38844 7.93866 7.93847 3.38862 13.5517 3.38862C19.1666 3.38862 23.7167 7.93866 23.7167 13.552ZM21.8631 24.2587C19.5681 26.0422 16.6835 27.1052 13.5517 27.1052C6.06738 27.1052 0 21.0378 0 13.5518C0 6.0674 6.06738 0 13.5517 0C21.0377 0 27.1051 6.0674 27.1051 13.5518C27.1051 16.6835 26.0421 19.5682 24.2586 21.8632L33.5039 31.1085C34.1654 31.7699 34.1654 32.8425 33.5039 33.5039C32.8425 34.1654 31.7699 34.1654 31.1085 33.5039L21.8631 24.2587Z" fill="#4E4E4E"/>
</svg>
